<?xml version="1.0" standalone="no"?>
<!DOCTYPE svg PUBLIC "-//W3C//DTD SVG 1.1//EN" "http://www.w3.org/Graphics/SVG/1.1/DTD/svg11.dtd">
<svg version="1.1" width="1200" height="486" onload="init(evt)" viewBox="0 0 1200 486" xmlns="http://www.w3.org/2000/svg" xmlns:xlink="http://www.w3.org/1999/xlink">
<!-- Flame graph stack visualization. See https://github.com/brendangregg/FlameGraph for latest version, and http://www.brendangregg.com/flamegraphs.html for examples. -->
<!-- NOTES:  -->
<defs>
	<linearGradient id="background" y1="0" y2="1" x1="0" x2="0" >
		<stop stop-color="#eeeeee" offset="5%" />
		<stop stop-color="#eeeeb0" offset="95%" />
	</linearGradient>
</defs>
<style type="text/css">
	text { font-family:Verdana; font-size:12px; fill:rgb(0,0,0); }
	#search, #ignorecase { opacity:0.1; cursor:pointer; }
	#search:hover, #search.show, #ignorecase:hover, #ignorecase.show { opacity:1; }
	#subtitle { text-anchor:middle; font-color:rgb(160,160,160); }
	#title { text-anchor:middle; font-size:17px}
	#unzoom { cursor:pointer; }
	#frames > *:hover { stroke:black; stroke-width:0.5; cursor:pointer; }
	.hide { display:none; }
	.parent { opacity:0.5; }
</style>
<script type="text/ecmascript">
<![CDATA[
	"use strict";
	var details, searchbtn, unzoombtn, matchedtxt, svg, searching, currentSearchTerm, ignorecase, ignorecaseBtn;
	function init(evt) {
		details = document.getElementById("details").firstChild;
		searchbtn = document.getElementById("search");
		ignorecaseBtn = document.getElementById("ignorecase");
		unzoombtn = document.getElementById("unzoom");
		matchedtxt = document.getElementById("matched");
		svg = document.getElementsByTagName("svg")[0];
		searching = 0;
		currentSearchTerm = null;
	}

	window.addEventListener("click", function(e) {
		var target = find_group(e.target);
		if (target) {
			if (target.nodeName == "a") {
				if (e.ctrlKey === false) return;
				e.preventDefault();
			}
			if (target.classList.contains("parent")) unzoom();
			zoom(target);
		}
		else if (e.target.id == "unzoom") unzoom();
		else if (e.target.id == "search") search_prompt();
		else if (e.target.id == "ignorecase") toggle_ignorecase();
	}, false)

	// mouse-over for info
	// show
	window.addEventListener("mouseover", function(e) {
		var target = find_group(e.target);
		if (target) details.nodeValue = "Function: " + g_to_text(target);
	}, false)

	// clear
	window.addEventListener("mouseout", function(e) {
		var target = find_group(e.target);
		if (target) details.nodeValue = ' ';
	}, false)

	// ctrl-F for search
	window.addEventListener("keydown",function (e) {
		if (e.keyCode === 114 || (e.ctrlKey && e.keyCode === 70)) {
			e.preventDefault();
			search_prompt();
		}
	}, false)

	// ctrl-I to toggle case-sensitive search
	window.addEventListener("keydown",function (e) {
		if (e.ctrlKey && e.keyCode === 73) {
			e.preventDefault();
			toggle_ignorecase();
		}
	}, false)

	// functions
	function find_child(node, selector) {
		var children = node.querySelectorAll(selector);
		if (children.length) return children[0];
		return;
	}
	function find_group(node) {
		var parent = node.parentElement;
		if (!parent) return;
		if (parent.id == "frames") return node;
		return find_group(parent);
	}
	function orig_save(e, attr, val) {
		if (e.attributes["_orig_" + attr] != undefined) return;
		if (e.attributes[attr] == undefined) return;
		if (val == undefined) val = e.attributes[attr].value;
		e.setAttribute("_orig_" + attr, val);
	}
	function orig_load(e, attr) {
		if (e.attributes["_orig_"+attr] == undefined) return;
		e.attributes[attr].value = e.attributes["_orig_" + attr].value;
		e.removeAttribute("_orig_"+attr);
	}
	function g_to_text(e) {
		var text = find_child(e, "title").firstChild.nodeValue;
		return (text)
	}
	function g_to_func(e) {
		var func = g_to_text(e);
		// if there's any manipulation we want to do to the function
		// name before it's searched, do it here before returning.
		return (func);
	}
	function update_text(e) {
		var r = find_child(e, "rect");
		var t = find_child(e, "text");
		var w = parseFloat(r.attributes.width.value) -3;
		var txt = find_child(e, "title").textContent.replace(/\([^(]*\)$/,"");
		t.attributes.x.value = parseFloat(r.attributes.x.value) + 3;

		// Smaller than this size won't fit anything
		if (w < 2 * 12 * 0.59) {
			t.textContent = "";
			return;
		}

		t.textContent = txt;
		// Fit in full text width
		if (/^ *$/.test(txt) || t.getSubStringLength(0, txt.length) < w)
			return;

		for (var x = txt.length - 2; x > 0; x--) {
			if (t.getSubStringLength(0, x + 2) <= w) {
				t.textContent = txt.substring(0, x) + "..";
				return;
			}
		}
		t.textContent = "";
	}

	// zoom
	function zoom_reset(e) {
		if (e.attributes != undefined) {
			orig_load(e, "x");
			orig_load(e, "width");
		}
		if (e.childNodes == undefined) return;
		for (var i = 0, c = e.childNodes; i < c.length; i++) {
			zoom_reset(c[i]);
		}
	}
	function zoom_child(e, x, ratio) {
		if (e.attributes != undefined) {
			if (e.attributes.x != undefined) {
				orig_save(e, "x");
				e.attributes.x.value = (parseFloat(e.attributes.x.value) - x - 10) * ratio + 10;
				if (e.tagName == "text")
					e.attributes.x.value = find_child(e.parentNode, "rect[x]").attributes.x.value + 3;
			}
			if (e.attributes.width != undefined) {
				orig_save(e, "width");
				e.attributes.width.value = parseFloat(e.attributes.width.value) * ratio;
			}
		}

		if (e.childNodes == undefined) return;
		for (var i = 0, c = e.childNodes; i < c.length; i++) {
			zoom_child(c[i], x - 10, ratio);
		}
	}
	function zoom_parent(e) {
		if (e.attributes) {
			if (e.attributes.x != undefined) {
				orig_save(e, "x");
				e.attributes.x.value = 10;
			}
			if (e.attributes.width != undefined) {
				orig_save(e, "width");
				e.attributes.width.value = parseInt(svg.width.baseVal.value) - (10 * 2);
			}
		}
		if (e.childNodes == undefined) return;
		for (var i = 0, c = e.childNodes; i < c.length; i++) {
			zoom_parent(c[i]);
		}
	}
	function zoom(node) {
		var attr = find_child(node, "rect").attributes;
		var width = parseFloat(attr.width.value);
		var xmin = parseFloat(attr.x.value);
		var xmax = parseFloat(xmin + width);
		var ymin = parseFloat(attr.y.value);
		var ratio = (svg.width.baseVal.value - 2 * 10) / width;

		// XXX: Workaround for JavaScript float issues (fix me)
		var fudge = 0.0001;

		unzoombtn.classList.remove("hide");

		var el = document.getElementById("frames").children;
		for (var i = 0; i < el.length; i++) {
			var e = el[i];
			var a = find_child(e, "rect").attributes;
			var ex = parseFloat(a.x.value);
			var ew = parseFloat(a.width.value);
			var upstack;
			// Is it an ancestor
			if (0 == 0) {
				upstack = parseFloat(a.y.value) > ymin;
			} else {
				upstack = parseFloat(a.y.value) < ymin;
			}
			if (upstack) {
				// Direct ancestor
				if (ex <= xmin && (ex+ew+fudge) >= xmax) {
					e.classList.add("parent");
					zoom_parent(e);
					update_text(e);
				}
				// not in current path
				else
					e.classList.add("hide");
			}
			// Children maybe
			else {
				// no common path
				if (ex < xmin || ex + fudge >= xmax) {
					e.classList.add("hide");
				}
				else {
					zoom_child(e, xmin, ratio);
					update_text(e);
				}
			}
		}
		search();
	}
	function unzoom() {
		unzoombtn.classList.add("hide");
		var el = document.getElementById("frames").children;
		for(var i = 0; i < el.length; i++) {
			el[i].classList.remove("parent");
			el[i].classList.remove("hide");
			zoom_reset(el[i]);
			update_text(el[i]);
		}
		search();
	}

	// search
	function toggle_ignorecase() {
		ignorecase = !ignorecase;
		if (ignorecase) {
			ignorecaseBtn.classList.add("show");
		} else {
			ignorecaseBtn.classList.remove("show");
		}
		reset_search();
		search();
	}
	function reset_search() {
		var el = document.querySelectorAll("#frames rect");
		for (var i = 0; i < el.length; i++) {
			orig_load(el[i], "fill")
		}
	}
	function search_prompt() {
		if (!searching) {
			var term = prompt("Enter a search term (regexp " +
			    "allowed, eg: ^ext4_)"
			    + (ignorecase ? ", ignoring case" : "")
			    + "\nPress Ctrl-i to toggle case sensitivity", "");
			if (term != null) {
				currentSearchTerm = term;
				search();
			}
		} else {
			reset_search();
			searching = 0;
			currentSearchTerm = null;
			searchbtn.classList.remove("show");
			searchbtn.firstChild.nodeValue = "Search"
			matchedtxt.classList.add("hide");
			matchedtxt.firstChild.nodeValue = ""
		}
	}
	function search(term) {
		if (currentSearchTerm === null) return;
		var term = currentSearchTerm;

		var re = new RegExp(term, ignorecase ? 'i' : '');
		var el = document.getElementById("frames").children;
		var matches = new Object();
		var maxwidth = 0;
		for (var i = 0; i < el.length; i++) {
			var e = el[i];
			var func = g_to_func(e);
			var rect = find_child(e, "rect");
			if (func == null || rect == null)
				continue;

			// Save max width. Only works as we have a root frame
			var w = parseFloat(rect.attributes.width.value);
			if (w > maxwidth)
				maxwidth = w;

			if (func.match(re)) {
				// highlight
				var x = parseFloat(rect.attributes.x.value);
				orig_save(rect, "fill");
				rect.attributes.fill.value = "rgb(230,0,230)";

				// remember matches
				if (matches[x] == undefined) {
					matches[x] = w;
				} else {
					if (w > matches[x]) {
						// overwrite with parent
						matches[x] = w;
					}
				}
				searching = 1;
			}
		}
		if (!searching)
			return;

		searchbtn.classList.add("show");
		searchbtn.firstChild.nodeValue = "Reset Search";

		// calculate percent matched, excluding vertical overlap
		var count = 0;
		var lastx = -1;
		var lastw = 0;
		var keys = Array();
		for (k in matches) {
			if (matches.hasOwnProperty(k))
				keys.push(k);
		}
		// sort the matched frames by their x location
		// ascending, then width descending
		keys.sort(function(a, b){
			return a - b;
		});
		// Step through frames saving only the biggest bottom-up frames
		// thanks to the sort order. This relies on the tree property
		// where children are always smaller than their parents.
		var fudge = 0.0001;	// JavaScript floating point
		for (var k in keys) {
			var x = parseFloat(keys[k]);
			var w = matches[keys[k]];
			if (x >= lastx + lastw - fudge) {
				count += w;
				lastx = x;
				lastw = w;
			}
		}
		// display matched percent
		matchedtxt.classList.remove("hide");
		var pct = 100 * count / maxwidth;
		if (pct != 100) pct = pct.toFixed(1)
		matchedtxt.firstChild.nodeValue = "Matched: " + pct + "%";
	}
]]>
</script>
<rect x="0.0" y="0" width="1200.0" height="486.0" fill="url(#background)"  />
<text id="title" x="600.00" y="24" >Flame Graph</text>
<text id="details" x="10.00" y="469" > </text>
<text id="unzoom" x="10.00" y="24" class="hide">Reset Zoom</text>
<text id="search" x="1090.00" y="24" >Search</text>
<text id="ignorecase" x="1174.00" y="24" >ic</text>
<text id="matched" x="1090.00" y="469" > </text>
<g id="frames">
<g >
<title>[unknown] (3 samples, 0.12%; 0.00%)</title><rect x="962.9" y="389" width="1.4" height="15.0" fill="rgb(255,255,255)" rx="2" ry="2" />
<text  x="965.90" y="399.5" ></text>
</g>
<g >
<title>memclnt_queue_callback (3 samples, 0.12%; 0.00%)</title><rect x="962.9" y="373" width="1.4" height="15.0" fill="rgb(255,255,255)" rx="2" ry="2" />
<text  x="965.90" y="383.5" ></text>
</g>
<g >
<title>smp_apic_timer_interrupt (1 samples, 0.04%; 0.00%)</title><rect x="737.2" y="261" width="0.4" height="15.0" fill="rgb(255,255,255)" rx="2" ry="2" />
<text  x="740.18" y="271.5" ></text>
</g>
<g >
<title>irq_exit (1 samples, 0.04%; 0.00%)</title><rect x="737.2" y="245" width="0.4" height="15.0" fill="rgb(255,255,255)" rx="2" ry="2" />
<text  x="740.18" y="255.5" ></text>
</g>
<g >
<title>xfs_alloc_ag_vextent_near (1 samples, 0.04%; 0.00%)</title><rect x="10.9" y="85" width="0.5" height="15.0" fill="rgb(255,255,255)" rx="2" ry="2" />
<text  x="13.92" y="95.5" ></text>
</g>
<g >
<title>kthread (2 samples, 0.08%; 0.00%)</title><rect x="10.0" y="389" width="0.9" height="15.0" fill="rgb(255,255,255)" rx="2" ry="2" />
<text  x="13.00" y="399.5" ></text>
</g>
<g >
<title>__tls_get_addr (5 samples, 0.19%; -0.04%)</title><rect x="1184.5" y="389" width="2.3" height="15.0" fill="rgb(196,196,255)" rx="2" ry="2" />
<text  x="1187.49" y="399.5" ></text>
</g>
<g >
<title>memclnt_queue_callback (4 samples, 0.16%; 0.00%)</title><rect x="990.0" y="405" width="1.8" height="15.0" fill="rgb(255,255,255)" rx="2" ry="2" />
<text  x="992.97" y="415.5" ></text>
</g>
<g >
<title>poll_schedule_timeout (1 samples, 0.04%; 0.00%)</title><rect x="961.5" y="341" width="0.5" height="15.0" fill="rgb(255,255,255)" rx="2" ry="2" />
<text  x="964.52" y="351.5" ></text>
</g>
<g >
<title>xfs_alloc_ag_vextent (1 samples, 0.04%; 0.00%)</title><rect x="10.9" y="101" width="0.5" height="15.0" fill="rgb(255,255,255)" rx="2" ry="2" />
<text  x="13.92" y="111.5" ></text>
</g>
<g >
<title>kthread (1 samples, 0.04%; 0.00%)</title><rect x="11.8" y="389" width="0.5" height="15.0" fill="rgb(255,255,255)" rx="2" ry="2" />
<text  x="14.84" y="399.5" ></text>
</g>
<g >
<title>xfs_bmapi_write (2 samples, 0.08%; 0.00%)</title><rect x="10.9" y="165" width="0.9" height="15.0" fill="rgb(255,255,255)" rx="2" ry="2" />
<text  x="13.92" y="175.5" ></text>
</g>
<g >
<title>do_sys_poll (1 samples, 0.04%; 0.00%)</title><rect x="961.5" y="357" width="0.5" height="15.0" fill="rgb(255,255,255)" rx="2" ry="2" />
<text  x="964.52" y="367.5" ></text>
</g>
<g >
<title>find_busiest_group (1 samples, 0.04%; +0.04%)</title><rect x="737.2" y="133" width="0.4" height="15.0" fill="rgb(255,196,196)" rx="2" ry="2" />
<text  x="740.18" y="143.5" ></text>
</g>
<g >
<title>xfs_map_blocks (2 samples, 0.08%; 0.00%)</title><rect x="10.9" y="197" width="0.9" height="15.0" fill="rgb(255,255,255)" rx="2" ry="2" />
<text  x="13.92" y="207.5" ></text>
</g>
<g >
<title>[unknown]  (167 samples, 6.49%; -0.12%)</title><rect x="1107.9" y="389" width="76.6" height="15.0" fill="rgb(168,168,255)" rx="2" ry="2" />
<text  x="1110.88" y="399.5" >[unknown] </text>
</g>
<g >
<title>xfs_alloc_fix_freelist (1 samples, 0.04%; 0.00%)</title><rect x="11.4" y="101" width="0.4" height="15.0" fill="rgb(255,255,255)" rx="2" ry="2" />
<text  x="14.38" y="111.5" ></text>
</g>
<g >
<title>cpu_startup_entry (490 samples, 19.05%; 0.00%)</title><rect x="736.7" y="325" width="224.8" height="15.0" fill="rgb(255,255,255)" rx="2" ry="2" />
<text  x="739.72" y="335.5" >cpu_startup_entry</text>
</g>
<g >
<title>__schedule (1 samples, 0.04%; +0.04%)</title><rect x="736.7" y="309" width="0.5" height="15.0" fill="rgb(255,196,196)" rx="2" ry="2" />
<text  x="739.72" y="319.5" ></text>
</g>
<g >
<title>default_idle (1,579 samples, 61.39%; 0.00%)</title><rect x="12.3" y="341" width="724.4" height="15.0" fill="rgb(255,255,255)" rx="2" ry="2" />
<text  x="15.29" y="351.5" >default_idle</text>
</g>
<g >
<title>arch_cpu_idle (1,579 samples, 61.39%; 0.00%)</title><rect x="12.3" y="357" width="724.4" height="15.0" fill="rgb(255,255,255)" rx="2" ry="2" />
<text  x="15.29" y="367.5" >arch_cpu_idle</text>
</g>
<g >
<title>process_one_work (2 samples, 0.08%; 0.00%)</title><rect x="10.9" y="357" width="0.9" height="15.0" fill="rgb(255,255,255)" rx="2" ry="2" />
<text  x="13.92" y="367.5" ></text>
</g>
<g >
<title>[unknown]  (2 samples, 0.08%; -0.08%)</title><rect x="962.0" y="405" width="0.9" height="15.0" fill="rgb(182,182,255)" rx="2" ry="2" />
<text  x="964.98" y="415.5" ></text>
</g>
<g >
<title>do_softirq (1 samples, 0.04%; 0.00%)</title><rect x="737.2" y="229" width="0.4" height="15.0" fill="rgb(255,255,255)" rx="2" ry="2" />
<text  x="740.18" y="239.5" ></text>
</g>
<g >
<title>[unknown]  (106 samples, 4.12%; -0.51%)</title><rect x="1123.0" y="373" width="48.6" height="15.0" fill="rgb(28,28,255)" rx="2" ry="2" />
<text  x="1126.02" y="383.5" >[unk..</text>
</g>
<g >
<title>cpu_startup_entry (1,579 samples, 61.39%; 0.00%)</title><rect x="12.3" y="373" width="724.4" height="15.0" fill="rgb(255,255,255)" rx="2" ry="2" />
<text  x="15.29" y="383.5" >cpu_startup_entry</text>
</g>
<g >
<title>start_kernel (490 samples, 19.05%; 0.00%)</title><rect x="736.7" y="357" width="224.8" height="15.0" fill="rgb(255,255,255)" rx="2" ry="2" />
<text  x="739.72" y="367.5" >start_kernel</text>
</g>
<g >
<title>xfs_iomap_write_allocate (2 samples, 0.08%; 0.00%)</title><rect x="10.9" y="181" width="0.9" height="15.0" fill="rgb(255,255,255)" rx="2" ry="2" />
<text  x="13.92" y="191.5" ></text>
</g>
<g >
<title>arch_cpu_idle (488 samples, 18.97%; 0.00%)</title><rect x="737.2" y="309" width="223.9" height="15.0" fill="rgb(255,255,255)" rx="2" ry="2" />
<text  x="740.18" y="319.5" >arch_cpu_idle</text>
</g>
<g >
<title>start_secondary (1,579 samples, 61.39%; 0.00%)</title><rect x="12.3" y="389" width="724.4" height="15.0" fill="rgb(255,255,255)" rx="2" ry="2" />
<text  x="15.29" y="399.5" >start_secondary</text>
</g>
<g >
<title>__tls_get_addr (28 samples, 1.09%; +0.12%)</title><rect x="1171.6" y="373" width="12.9" height="15.0" fill="rgb(255,168,168)" rx="2" ry="2" />
<text  x="1174.65" y="383.5" ></text>
</g>
<g >
<title>vlib_elog_main_loop_event.isra.4 (7 samples, 0.27%; -0.47%)</title><rect x="992.3" y="405" width="3.2" height="15.0" fill="rgb(42,42,255)" rx="2" ry="2" />
<text  x="995.26" y="415.5" ></text>
</g>
<g >
<title>xfs_bmap_btalloc (2 samples, 0.08%; 0.00%)</title><rect x="10.9" y="133" width="0.9" height="15.0" fill="rgb(255,255,255)" rx="2" ry="2" />
<text  x="13.92" y="143.5" ></text>
</g>
<g >
<title>vpp_main (495 samples, 19.25%; 0.00%)</title><rect x="962.0" y="421" width="227.1" height="15.0" fill="rgb(255,255,255)" rx="2" ry="2" />
<text  x="964.98" y="431.5" >vpp_main</text>
</g>
<g >
<title>xfs_buf_get_map (1 samples, 0.04%; +0.04%)</title><rect x="11.4" y="37" width="0.4" height="15.0" fill="rgb(255,196,196)" rx="2" ry="2" />
<text  x="14.38" y="47.5" ></text>
</g>
<g >
<title>xfs_do_writepage (2 samples, 0.08%; 0.00%)</title><rect x="10.9" y="213" width="0.9" height="15.0" fill="rgb(255,255,255)" rx="2" ry="2" />
<text  x="13.92" y="223.5" ></text>
</g>
<g >
<title>xfs_trans_ail_cursor_first (1 samples, 0.04%; +0.04%)</title><rect x="1189.5" y="357" width="0.5" height="15.0" fill="rgb(255,196,196)" rx="2" ry="2" />
<text  x="1192.54" y="367.5" ></text>
</g>
<g >
<title>apic_timer_interrupt (1 samples, 0.04%; 0.00%)</title><rect x="737.2" y="277" width="0.4" height="15.0" fill="rgb(255,255,255)" rx="2" ry="2" />
<text  x="740.18" y="287.5" ></text>
</g>
<g >
<title>__do_softirq (1 samples, 0.04%; -0.04%)</title><rect x="737.2" y="197" width="0.4" height="15.0" fill="rgb(196,196,255)" rx="2" ry="2" />
<text  x="740.18" y="207.5" ></text>
</g>
<g >
<title>__GI___libc_poll (1 samples, 0.04%; 0.00%)</title><rect x="961.5" y="405" width="0.5" height="15.0" fill="rgb(255,255,255)" rx="2" ry="2" />
<text  x="964.52" y="415.5" ></text>
</g>
<g >
<title>__schedule (1 samples, 0.04%; 0.00%)</title><rect x="961.1" y="293" width="0.4" height="15.0" fill="rgb(255,255,255)" rx="2" ry="2" />
<text  x="964.07" y="303.5" ></text>
</g>
<g >
<title>load_balance (1 samples, 0.04%; 0.00%)</title><rect x="737.2" y="149" width="0.4" height="15.0" fill="rgb(255,255,255)" rx="2" ry="2" />
<text  x="740.18" y="159.5" ></text>
</g>
<g >
<title>call_softirq (1 samples, 0.04%; 0.00%)</title><rect x="737.2" y="213" width="0.4" height="15.0" fill="rgb(255,255,255)" rx="2" ry="2" />
<text  x="740.18" y="223.5" ></text>
</g>
<g >
<title>kthread (2 samples, 0.08%; 0.00%)</title><rect x="10.9" y="389" width="0.9" height="15.0" fill="rgb(255,255,255)" rx="2" ry="2" />
<text  x="13.92" y="399.5" ></text>
</g>
<g >
<title>xfs_read_agf (1 samples, 0.04%; 0.00%)</title><rect x="11.4" y="69" width="0.4" height="15.0" fill="rgb(255,255,255)" rx="2" ry="2" />
<text  x="14.38" y="79.5" ></text>
</g>
<g >
<title>tracesys (1 samples, 0.04%; 0.00%)</title><rect x="961.5" y="389" width="0.5" height="15.0" fill="rgb(255,255,255)" rx="2" ry="2" />
<text  x="964.52" y="399.5" ></text>
</g>
<g >
<title>xfs_vm_writepages (2 samples, 0.08%; 0.00%)</title><rect x="10.9" y="245" width="0.9" height="15.0" fill="rgb(255,255,255)" rx="2" ry="2" />
<text  x="13.92" y="255.5" ></text>
</g>
<g >
<title>all (2,572 samples, 100%)</title><rect x="10.0" y="437" width="1180.0" height="15.0" fill="rgb(255,255,255)" rx="2" ry="2" />
<text  x="13.00" y="447.5" ></text>
</g>
<g >
<title>__writeback_single_inode (2 samples, 0.08%; 0.00%)</title><rect x="10.9" y="277" width="0.9" height="15.0" fill="rgb(255,255,255)" rx="2" ry="2" />
<text  x="13.92" y="287.5" ></text>
</g>
<g >
<title>finish_task_switch (1 samples, 0.04%; +0.04%)</title><rect x="961.1" y="277" width="0.4" height="15.0" fill="rgb(255,196,196)" rx="2" ry="2" />
<text  x="964.07" y="287.5" ></text>
</g>
<g >
<title>xfsaild/dm-0 (2 samples, 0.08%; 0.00%)</title><rect x="1189.1" y="421" width="0.9" height="15.0" fill="rgb(255,255,255)" rx="2" ry="2" />
<text  x="1192.08" y="431.5" ></text>
</g>
<g >
<title>[unknown]  (1 samples, 0.04%; -0.08%)</title><rect x="1171.2" y="357" width="0.4" height="15.0" fill="rgb(182,182,255)" rx="2" ry="2" />
<text  x="1174.19" y="367.5" ></text>
</g>
<g >
<title>vmtoolsd (1 samples, 0.04%; 0.00%)</title><rect x="961.5" y="421" width="0.5" height="15.0" fill="rgb(255,255,255)" rx="2" ry="2" />
<text  x="964.52" y="431.5" ></text>
</g>
<g >
<title>ret_from_fork_nospec_end (2 samples, 0.08%; 0.00%)</title><rect x="10.0" y="405" width="0.9" height="15.0" fill="rgb(255,255,255)" rx="2" ry="2" />
<text  x="13.00" y="415.5" ></text>
</g>
<g >
<title>writeback_sb_inodes (2 samples, 0.08%; 0.00%)</title><rect x="10.9" y="293" width="0.9" height="15.0" fill="rgb(255,255,255)" rx="2" ry="2" />
<text  x="13.92" y="303.5" ></text>
</g>
<g >
<title>bdi_writeback_workfn (2 samples, 0.08%; 0.00%)</title><rect x="10.9" y="341" width="0.9" height="15.0" fill="rgb(255,255,255)" rx="2" ry="2" />
<text  x="13.92" y="351.5" ></text>
</g>
<g >
<title>worker_thread (2 samples, 0.08%; 0.00%)</title><rect x="10.9" y="373" width="0.9" height="15.0" fill="rgb(255,255,255)" rx="2" ry="2" />
<text  x="13.92" y="383.5" ></text>
</g>
<g >
<title>swapper (2,069 samples, 80.44%; 0.00%)</title><rect x="12.3" y="421" width="949.2" height="15.0" fill="rgb(255,255,255)" rx="2" ry="2" />
<text  x="15.29" y="431.5" >swapper</text>
</g>
<g >
<title>xfs_btree_get_rec (1 samples, 0.04%; +0.04%)</title><rect x="10.9" y="53" width="0.5" height="15.0" fill="rgb(255,196,196)" rx="2" ry="2" />
<text  x="13.92" y="63.5" ></text>
</g>
<g >
<title>rcu_sched (1 samples, 0.04%; 0.00%)</title><rect x="11.8" y="421" width="0.5" height="15.0" fill="rgb(255,255,255)" rx="2" ry="2" />
<text  x="14.84" y="431.5" ></text>
</g>
<g >
<title>sys_poll (1 samples, 0.04%; 0.00%)</title><rect x="961.5" y="373" width="0.5" height="15.0" fill="rgb(255,255,255)" rx="2" ry="2" />
<text  x="964.52" y="383.5" ></text>
</g>
<g >
<title>xfs_alloc_get_rec (1 samples, 0.04%; 0.00%)</title><rect x="10.9" y="69" width="0.5" height="15.0" fill="rgb(255,255,255)" rx="2" ry="2" />
<text  x="13.92" y="79.5" ></text>
</g>
<g >
<title>kworker/u16:0 (2 samples, 0.08%; 0.00%)</title><rect x="10.9" y="421" width="0.9" height="15.0" fill="rgb(255,255,255)" rx="2" ry="2" />
<text  x="13.92" y="431.5" ></text>
</g>
<g >
<title>native_safe_halt (487 samples, 18.93%; -0.23%)</title><rect x="737.6" y="277" width="223.5" height="15.0" fill="rgb(126,126,255)" rx="2" ry="2" />
<text  x="740.64" y="287.5" >native_safe_halt</text>
</g>
<g >
<title>xfs_alloc_read_agf (1 samples, 0.04%; 0.00%)</title><rect x="11.4" y="85" width="0.4" height="15.0" fill="rgb(255,255,255)" rx="2" ry="2" />
<text  x="14.38" y="95.5" ></text>
</g>
<g >
<title>xfs_trans_read_buf_map (1 samples, 0.04%; 0.00%)</title><rect x="11.4" y="53" width="0.4" height="15.0" fill="rgb(255,255,255)" rx="2" ry="2" />
<text  x="14.38" y="63.5" ></text>
</g>
<g >
<title>schedule_preempt_disabled (1 samples, 0.04%; 0.00%)</title><rect x="961.1" y="309" width="0.4" height="15.0" fill="rgb(255,255,255)" rx="2" ry="2" />
<text  x="964.07" y="319.5" ></text>
</g>
<g >
<title>context_tracking_exit (1 samples, 0.04%; +0.04%)</title><rect x="991.8" y="341" width="0.5" height="15.0" fill="rgb(255,196,196)" rx="2" ry="2" />
<text  x="994.80" y="351.5" ></text>
</g>
<g >
<title>x86_64_start_kernel (490 samples, 19.05%; 0.00%)</title><rect x="736.7" y="389" width="224.8" height="15.0" fill="rgb(255,255,255)" rx="2" ry="2" />
<text  x="739.72" y="399.5" >x86_64_start_kernel</text>
</g>
<g >
<title>syscall (1 samples, 0.04%; 0.00%)</title><rect x="991.8" y="405" width="0.5" height="15.0" fill="rgb(255,255,255)" rx="2" ry="2" />
<text  x="994.80" y="415.5" ></text>
</g>
<g >
<title>hrtimer_start_range_ns (1 samples, 0.04%; 0.00%)</title><rect x="961.5" y="293" width="0.5" height="15.0" fill="rgb(255,255,255)" rx="2" ry="2" />
<text  x="964.52" y="303.5" ></text>
</g>
<g >
<title>vmstat_update (2 samples, 0.08%; +0.04%)</title><rect x="10.0" y="341" width="0.9" height="15.0" fill="rgb(255,196,196)" rx="2" ry="2" />
<text  x="13.00" y="351.5" ></text>
</g>
<g >
<title>rcu_gp_kthread (1 samples, 0.04%; +0.04%)</title><rect x="11.8" y="373" width="0.5" height="15.0" fill="rgb(255,196,196)" rx="2" ry="2" />
<text  x="14.84" y="383.5" ></text>
</g>
<g >
<title>queue_delayed_work_on (1 samples, 0.04%; +0.04%)</title><rect x="10.5" y="325" width="0.4" height="15.0" fill="rgb(255,196,196)" rx="2" ry="2" />
<text  x="13.46" y="335.5" ></text>
</g>
<g >
<title>syscall_trace_enter (1 samples, 0.04%; 0.00%)</title><rect x="991.8" y="373" width="0.5" height="15.0" fill="rgb(255,255,255)" rx="2" ry="2" />
<text  x="994.80" y="383.5" ></text>
</g>
<g >
<title>[unknown] (58 samples, 2.26%; 0.00%)</title><rect x="962.9" y="405" width="26.6" height="15.0" fill="rgb(255,255,255)" rx="2" ry="2" />
<text  x="965.90" y="415.5" >[..</text>
</g>
<g >
<title>write_cache_pages (2 samples, 0.08%; 0.00%)</title><rect x="10.9" y="229" width="0.9" height="15.0" fill="rgb(255,255,255)" rx="2" ry="2" />
<text  x="13.92" y="239.5" ></text>
</g>
<g >
<title>kthread_should_stop (1 samples, 0.04%; +0.04%)</title><rect x="1189.1" y="373" width="0.4" height="15.0" fill="rgb(255,196,196)" rx="2" ry="2" />
<text  x="1192.08" y="383.5" ></text>
</g>
<g >
<title>xfs_alloc_vextent (2 samples, 0.08%; 0.00%)</title><rect x="10.9" y="117" width="0.9" height="15.0" fill="rgb(255,255,255)" rx="2" ry="2" />
<text  x="13.92" y="127.5" ></text>
</g>
<g >
<title>rebalance_domains (1 samples, 0.04%; 0.00%)</title><rect x="737.2" y="165" width="0.4" height="15.0" fill="rgb(255,255,255)" rx="2" ry="2" />
<text  x="740.18" y="175.5" ></text>
</g>
<g >
<title>xfs_bmap_alloc (2 samples, 0.08%; 0.00%)</title><rect x="10.9" y="149" width="0.9" height="15.0" fill="rgb(255,255,255)" rx="2" ry="2" />
<text  x="13.92" y="159.5" ></text>
</g>
<g >
<title>epoll_pwait (1 samples, 0.04%; +0.04%)</title><rect x="989.5" y="405" width="0.5" height="15.0" fill="rgb(255,196,196)" rx="2" ry="2" />
<text  x="992.51" y="415.5" ></text>
</g>
<g >
<title>worker_thread (2 samples, 0.08%; 0.00%)</title><rect x="10.0" y="373" width="0.9" height="15.0" fill="rgb(255,255,255)" rx="2" ry="2" />
<text  x="13.00" y="383.5" ></text>
</g>
<g >
<title>schedule_hrtimeout_range_clock (1 samples, 0.04%; 0.00%)</title><rect x="961.5" y="309" width="0.5" height="15.0" fill="rgb(255,255,255)" rx="2" ry="2" />
<text  x="964.52" y="319.5" ></text>
</g>
<g >
<title>_raw_spin_unlock_irqrestore (1 samples, 0.04%; +0.04%)</title><rect x="961.5" y="277" width="0.5" height="15.0" fill="rgb(255,196,196)" rx="2" ry="2" />
<text  x="964.52" y="287.5" ></text>
</g>
<g >
<title>x86_64_start_reservations (490 samples, 19.05%; 0.00%)</title><rect x="736.7" y="373" width="224.8" height="15.0" fill="rgb(255,255,255)" rx="2" ry="2" />
<text  x="739.72" y="383.5" >x86_64_start_reservations</text>
</g>
<g >
<title>xfsaild (1 samples, 0.04%; 0.00%)</title><rect x="1189.5" y="373" width="0.5" height="15.0" fill="rgb(255,255,255)" rx="2" ry="2" />
<text  x="1192.54" y="383.5" ></text>
</g>
<g >
<title>context_tracking_user_exit (1 samples, 0.04%; 0.00%)</title><rect x="991.8" y="357" width="0.5" height="15.0" fill="rgb(255,255,255)" rx="2" ry="2" />
<text  x="994.80" y="367.5" ></text>
</g>
<g >
<title>__writeback_inodes_wb (2 samples, 0.08%; 0.00%)</title><rect x="10.9" y="309" width="0.9" height="15.0" fill="rgb(255,255,255)" rx="2" ry="2" />
<text  x="13.92" y="319.5" ></text>
</g>
<g >
<title>native_safe_halt (1,579 samples, 61.39%; +0.04%)</title><rect x="12.3" y="325" width="724.4" height="15.0" fill="rgb(255,196,196)" rx="2" ry="2" />
<text  x="15.29" y="335.5" >native_safe_halt</text>
</g>
<g >
<title>ret_from_fork_nospec_end (1 samples, 0.04%; 0.00%)</title><rect x="11.8" y="405" width="0.5" height="15.0" fill="rgb(255,255,255)" rx="2" ry="2" />
<text  x="14.84" y="415.5" ></text>
</g>
<g >
<title>vlib_main (43 samples, 1.67%; +0.58%)</title><rect x="969.8" y="389" width="19.7" height="15.0" fill="rgb(255,0,0)" rx="2" ry="2" />
<text  x="972.78" y="399.5" ></text>
</g>
<g >
<title>process_one_work (2 samples, 0.08%; 0.00%)</title><rect x="10.0" y="357" width="0.9" height="15.0" fill="rgb(255,255,255)" rx="2" ry="2" />
<text  x="13.00" y="367.5" ></text>
</g>
<g >
<title>do_writepages (2 samples, 0.08%; 0.00%)</title><rect x="10.9" y="261" width="0.9" height="15.0" fill="rgb(255,255,255)" rx="2" ry="2" />
<text  x="13.92" y="271.5" ></text>
</g>
<g >
<title>tw_timer_expire_timers_internal_1t_3w_1024sl_ov (12 samples, 0.47%; +0.04%)</title><rect x="964.3" y="389" width="5.5" height="15.0" fill="rgb(255,196,196)" rx="2" ry="2" />
<text  x="967.28" y="399.5" ></text>
</g>
<g >
<title>ret_from_fork_nospec_end (2 samples, 0.08%; 0.00%)</title><rect x="10.9" y="405" width="0.9" height="15.0" fill="rgb(255,255,255)" rx="2" ry="2" />
<text  x="13.92" y="415.5" ></text>
</g>
<g >
<title>ret_from_fork_nospec_end (2 samples, 0.08%; 0.00%)</title><rect x="1189.1" y="405" width="0.9" height="15.0" fill="rgb(255,255,255)" rx="2" ry="2" />
<text  x="1192.08" y="415.5" ></text>
</g>
<g >
<title>tracesys (1 samples, 0.04%; 0.00%)</title><rect x="991.8" y="389" width="0.5" height="15.0" fill="rgb(255,255,255)" rx="2" ry="2" />
<text  x="994.80" y="399.5" ></text>
</g>
<g >
<title>default_idle (488 samples, 18.97%; 0.00%)</title><rect x="737.2" y="293" width="223.9" height="15.0" fill="rgb(255,255,255)" rx="2" ry="2" />
<text  x="740.18" y="303.5" >default_idle</text>
</g>
<g >
<title>kthread (2 samples, 0.08%; 0.00%)</title><rect x="1189.1" y="389" width="0.9" height="15.0" fill="rgb(255,255,255)" rx="2" ry="2" />
<text  x="1192.08" y="399.5" ></text>
</g>
<g >
<title>vlib_node_runtime_perf_counter (5 samples, 0.19%; -0.04%)</title><rect x="1186.8" y="405" width="2.3" height="15.0" fill="rgb(196,196,255)" rx="2" ry="2" />
<text  x="1189.79" y="415.5" ></text>
</g>
<g >
<title>wb_writeback (2 samples, 0.08%; 0.00%)</title><rect x="10.9" y="325" width="0.9" height="15.0" fill="rgb(255,255,255)" rx="2" ry="2" />
<text  x="13.92" y="335.5" ></text>
</g>
<g >
<title>run_rebalance_domains (1 samples, 0.04%; 0.00%)</title><rect x="737.2" y="181" width="0.4" height="15.0" fill="rgb(255,255,255)" rx="2" ry="2" />
<text  x="740.18" y="191.5" ></text>
</g>
<g >
<title>vlib_main (417 samples, 16.21%; +0.58%)</title><rect x="995.5" y="405" width="191.3" height="15.0" fill="rgb(255,0,0)" rx="2" ry="2" />
<text  x="998.47" y="415.5" >vlib_main</text>
</g>
<g >
<title>kworker/0:2 (2 samples, 0.08%; 0.00%)</title><rect x="10.0" y="421" width="0.9" height="15.0" fill="rgb(255,255,255)" rx="2" ry="2" />
<text  x="13.00" y="431.5" ></text>
</g>
<g >
<title>start_cpu (2,069 samples, 80.44%; 0.00%)</title><rect x="12.3" y="405" width="949.2" height="15.0" fill="rgb(255,255,255)" rx="2" ry="2" />
<text  x="15.29" y="415.5" >start_cpu</text>
</g>
<g >
<title>rest_init (490 samples, 19.05%; 0.00%)</title><rect x="736.7" y="341" width="224.8" height="15.0" fill="rgb(255,255,255)" rx="2" ry="2" />
<text  x="739.72" y="351.5" >rest_init</text>
</g>
<g >
<title>schedule_hrtimeout_range (1 samples, 0.04%; 0.00%)</title><rect x="961.5" y="325" width="0.5" height="15.0" fill="rgb(255,255,255)" rx="2" ry="2" />
<text  x="964.52" y="335.5" ></text>
</g>
</g>
</svg>
